<?xml version="1.0" encoding="UTF-8"?> <svg xmlns="http://www.w3.org/2000/svg" width="516" height="90" viewBox="0 0 516 90" fill="none"> <g filter="url(#filter0_dd_157_2015)"> <rect x="17" y="13" width="482" height="56" stroke="#EE2D4F"></rect> </g> <path fill-rule="evenodd" clip-rule="evenodd" d="M44.206 45.617L47.296 48.703C47.686 49.099 48.316 49.099 48.706 48.703C49.098 48.308 49.098 47.669 48.706 47.273L45.626 44.193C46.496 43.025 47.013 41.577 47.013 40.007C47.013 36.137 43.876 33 40.007 33C36.137 33 33 36.137 33 40.007C33 43.877 36.137 47.014 40.007 47.014C41.582 47.014 43.036 46.494 44.206 45.617ZM40.006 45.012C37.243 45.012 35.002 42.772 35.002 40.007C35.002 37.243 37.242 35.002 40.007 35.002C42.771 35.002 45.011 37.242 45.011 40.007C45.011 42.771 42.771 45.012 40.008 45.012H40.006Z" fill="#EE2D4F" fill-opacity="0.48"></path> <path d="M68.68 35.368C68.856 35.368 69 35.224 69 35.048V34.12C69 33.944 68.856 33.8 68.68 33.8H62.92C61.864 33.8 61 34.664 61 35.72V38.264C61 39.32 61.864 40.184 62.92 40.184H68.68C68.856 40.184 69 40.328 69 40.504V43.112C69 43.288 68.856 43.432 68.68 43.432H61.32C61.144 43.432 61 43.576 61 43.752V44.68C61 44.856 61.144 45 61.32 45H68.648C69.72 45 70.568 44.136 70.568 43.08V40.536C70.568 39.48 69.72 38.616 68.648 38.616H62.888C62.712 38.616 62.568 38.472 62.568 38.296V35.688C62.568 35.512 62.712 35.368 62.888 35.368H68.68ZM81.7711 34.12C81.7711 33.944 81.6271 33.8 81.4511 33.8H72.5231C72.3471 33.8 72.2031 33.944 72.2031 34.12V44.68C72.2031 44.856 72.3471 45 72.5231 45H81.4511C81.6271 45 81.7711 44.856 81.7711 44.68V43.72C81.7711 43.544 81.6271 43.4 81.4511 43.4H74.1231C73.9471 43.4 73.8031 43.256 73.8031 43.08V40.52C73.8031 40.344 73.9471 40.2 74.1231 40.2H79.8831C80.0591 40.2 80.2031 40.056 80.2031 39.88V38.92C80.2031 38.744 80.0591 38.6 79.8831 38.6H74.1231C73.9471 38.6 73.8031 38.456 73.8031 38.28V35.72C73.8031 35.544 73.9471 35.4 74.1231 35.4H81.4511C81.6271 35.4 81.7711 35.256 81.7711 35.08V34.12ZM85.0063 35.72C85.0063 35.544 85.1503 35.4 85.3263 35.4H91.0863C91.2623 35.4 91.4062 35.544 91.4062 35.72V38.28C91.4062 38.456 91.2623 38.6 91.0863 38.6H85.3263C85.1503 38.6 85.0063 38.456 85.0063 38.28V35.72ZM83.4062 44.632C83.4062 44.84 83.5663 45 83.7743 45H84.6383C84.8463 45 85.0063 44.84 85.0063 44.632V40.52C85.0063 40.344 85.1503 40.2 85.3263 40.2H91.0863C91.2623 40.2 91.4062 40.344 91.4062 40.52V44.632C91.4062 44.84 91.5663 45 91.7743 45H92.6383C92.8303 45 93.0063 44.84 93.0063 44.632V35.72C93.0063 34.664 92.1423 33.8 91.0863 33.8H85.3263C84.2703 33.8 83.4062 34.664 83.4062 35.72V44.632ZM85.0063 35.72C85.0063 35.544 85.1503 35.4 85.3263 35.4H91.0863C91.2623 35.4 91.4062 35.544 91.4062 35.72V38.28C91.4062 38.456 91.2623 38.6 91.0863 38.6H85.3263C85.1503 38.6 85.0063 38.456 85.0063 38.28V35.72ZM83.4062 44.632C83.4062 44.84 83.5663 45 83.7743 45H84.6383C84.8463 45 85.0063 44.84 85.0063 44.632V40.52C85.0063 40.344 85.1503 40.2 85.3263 40.2H91.0863C91.2623 40.2 91.4062 40.344 91.4062 40.52V44.632C91.4062 44.84 91.5663 45 91.7743 45H92.6383C92.8303 45 93.0063 44.84 93.0063 44.632V35.72C93.0063 34.664 92.1423 33.8 91.0863 33.8H85.3263C84.2703 33.8 83.4062 34.664 83.4062 35.72V44.632ZM85.0063 35.72C85.0063 35.544 85.1503 35.4 85.3263 35.4H91.0863C91.2623 35.4 91.4062 35.544 91.4062 35.72V38.28C91.4062 38.456 91.2623 38.6 91.0863 38.6H85.3263C85.1503 38.6 85.0063 38.456 85.0063 38.28V35.72ZM83.4062 44.68C83.4062 44.856 83.5503 45 83.7263 45H84.6863C84.8623 45 85.0063 44.856 85.0063 44.68V40.52C85.0063 40.344 85.1503 40.2 85.3263 40.2H91.0863C91.2623 40.2 91.4062 40.344 91.4062 40.52V44.68C91.4062 44.856 91.5503 45 91.7263 45H92.6863C92.8623 45 93.0063 44.856 93.0063 44.68V35.72C93.0063 34.664 92.1423 33.8 91.0863 33.8H85.3263C84.2703 33.8 83.4062 34.664 83.4062 35.72V44.68ZM94.6094 34.12V44.68C94.6094 44.856 94.7534 45 94.9294 45H95.8894C96.0654 45 96.2094 44.856 96.2094 44.68V35.72C96.2094 35.544 96.3534 35.4 96.5294 35.4H102.289C102.465 35.4 102.609 35.544 102.609 35.72V38.28C102.609 38.456 102.465 38.6 102.289 38.6H98.9294C98.7534 38.6 98.6094 38.744 98.6094 38.92V39.688C98.6094 39.768 98.6414 39.848 98.6894 39.912L103.057 44.888C103.105 44.968 103.201 45 103.297 45H104.049C104.145 45 104.209 44.936 104.209 44.84V43.912C104.209 43.832 104.177 43.752 104.129 43.688L101.185 40.328C101.137 40.28 101.185 40.2 101.249 40.2H102.289C103.345 40.2 104.209 39.336 104.209 38.28V35.72C104.209 34.664 103.345 33.8 102.289 33.8H94.9294C94.7534 33.8 94.6094 33.944 94.6094 34.12ZM107.733 35.4H115.061C115.237 35.4 115.381 35.256 115.381 35.08V34.12C115.381 33.944 115.237 33.8 115.061 33.8H107.733C106.677 33.8 105.812 34.664 105.812 35.72V43.08C105.812 44.136 106.677 45 107.733 45H115.061C115.237 45 115.381 44.856 115.381 44.68V43.72C115.381 43.544 115.237 43.4 115.061 43.4H107.733C107.557 43.4 107.413 43.256 107.413 43.08V35.72C107.413 35.544 107.557 35.4 107.733 35.4ZM125.016 34.12V38.28C125.016 38.456 124.872 38.6 124.696 38.6H118.936C118.76 38.6 118.616 38.456 118.616 38.28V34.12C118.616 33.944 118.472 33.8 118.296 33.8H117.336C117.16 33.8 117.016 33.944 117.016 34.12V44.68C117.016 44.856 117.16 45 117.336 45H118.296C118.472 45 118.616 44.856 118.616 44.68V40.52C118.616 40.344 118.76 40.2 118.936 40.2H124.696C124.872 40.2 125.016 40.344 125.016 40.52V44.68C125.016 44.856 125.16 45 125.336 45H126.296C126.472 45 126.616 44.856 126.616 44.68V34.12C126.616 33.944 126.472 33.8 126.296 33.8H125.336C125.16 33.8 125.016 33.944 125.016 34.12Z" fill="white" fill-opacity="0.48"></path> <defs> <filter id="filter0_dd_157_2015" x="0.5" y="0.5" width="515" height="89" filterUnits="userSpaceOnUse" color-interpolation-filters="sRGB"> <feFlood flood-opacity="0" result="BackgroundImageFix"></feFlood> <feColorMatrix in="SourceAlpha" type="matrix" values="0 0 0 0 0 0 0 0 0 0 0 0 0 0 0 0 0 0 127 0" result="hardAlpha"></feColorMatrix> <feOffset dy="4"></feOffset> <feGaussianBlur stdDeviation="8"></feGaussianBlur> <feColorMatrix type="matrix" values="0 0 0 0 0.2 0 0 0 0 0.2 0 0 0 0 0.2 0 0 0 0.08 0"></feColorMatrix> <feBlend mode="normal" in2="BackgroundImageFix" result="effect1_dropShadow_157_2015"></feBlend> <feColorMatrix in="SourceAlpha" type="matrix" values="0 0 0 0 0 0 0 0 0 0 0 0 0 0 0 0 0 0 127 0" result="hardAlpha"></feColorMatrix> <feOffset dy="4"></feOffset> <feGaussianBlur stdDeviation="2"></feGaussianBlur> <feColorMatrix type="matrix" values="0 0 0 0 0.2 0 0 0 0 0.2 0 0 0 0 0.2 0 0 0 0.04 0"></feColorMatrix> <feBlend mode="normal" in2="effect1_dropShadow_157_2015" result="effect2_dropShadow_157_2015"></feBlend> <feBlend mode="normal" in="SourceGraphic" in2="effect2_dropShadow_157_2015" result="shape"></feBlend> </filter> </defs> </svg> 