<?xml version="1.0" encoding="UTF-8"?> <svg xmlns="http://www.w3.org/2000/svg" width="60" height="98" viewBox="0 0 60 98" fill="none"> <g filter="url(#filter0_d_87_251)"> <path d="M55.2 79.76C55.2 78.352 54.048 77.2 52.64 77.2H38.56C37.152 77.2 36 76.048 36 74.64V2.96C36 1.55199 34.848 0.399994 33.44 0.399994H6.56C5.152 0.399994 4 1.55199 4 2.96V10.64C4 12.048 5.152 13.2 6.56 13.2H20.64C22.048 13.2 23.2 14.352 23.2 15.76V74.64C23.2 76.048 22.048 77.2 20.64 77.2H6.56C5.152 77.2 4 78.352 4 79.76V87.44C4 88.848 5.152 90 6.56 90H52.64C54.048 90 55.2 88.848 55.2 87.44V79.76Z" fill="url(#paint0_radial_87_251)"></path> <path d="M55.2 79.76C55.2 78.352 54.048 77.2 52.64 77.2H38.56C37.152 77.2 36 76.048 36 74.64V2.96C36 1.55199 34.848 0.399994 33.44 0.399994H6.56C5.152 0.399994 4 1.55199 4 2.96V10.64C4 12.048 5.152 13.2 6.56 13.2H20.64C22.048 13.2 23.2 14.352 23.2 15.76V74.64C23.2 76.048 22.048 77.2 20.64 77.2H6.56C5.152 77.2 4 78.352 4 79.76V87.44C4 88.848 5.152 90 6.56 90H52.64C54.048 90 55.2 88.848 55.2 87.44V79.76Z" fill="url(#paint1_linear_87_251)" fill-opacity="0.2"></path> <path d="M55.2 79.76C55.2 78.352 54.048 77.2 52.64 77.2H38.56C37.152 77.2 36 76.048 36 74.64V2.96C36 1.55199 34.848 0.399994 33.44 0.399994H6.56C5.152 0.399994 4 1.55199 4 2.96V10.64C4 12.048 5.152 13.2 6.56 13.2H20.64C22.048 13.2 23.2 14.352 23.2 15.76V74.64C23.2 76.048 22.048 77.2 20.64 77.2H6.56C5.152 77.2 4 78.352 4 79.76V87.44C4 88.848 5.152 90 6.56 90H52.64C54.048 90 55.2 88.848 55.2 87.44V79.76Z" fill="url(#paint2_radial_87_251)" fill-opacity="0.2"></path> <path d="M55.2 79.76C55.2 78.352 54.048 77.2 52.64 77.2H38.56C37.152 77.2 36 76.048 36 74.64V2.96C36 1.55199 34.848 0.399994 33.44 0.399994H6.56C5.152 0.399994 4 1.55199 4 2.96V10.64C4 12.048 5.152 13.2 6.56 13.2H20.64C22.048 13.2 23.2 14.352 23.2 15.76V74.64C23.2 76.048 22.048 77.2 20.64 77.2H6.56C5.152 77.2 4 78.352 4 79.76V87.44C4 88.848 5.152 90 6.56 90H52.64C54.048 90 55.2 88.848 55.2 87.44V79.76Z" fill="url(#paint3_linear_87_251)" fill-opacity="0.2"></path> </g> <defs> <filter id="filter0_d_87_251" x="0" y="0.400024" width="59.2" height="97.6" filterUnits="userSpaceOnUse" color-interpolation-filters="sRGB"> <feFlood flood-opacity="0" result="BackgroundImageFix"></feFlood> <feColorMatrix in="SourceAlpha" type="matrix" values="0 0 0 0 0 0 0 0 0 0 0 0 0 0 0 0 0 0 127 0" result="hardAlpha"></feColorMatrix> <feOffset dy="4"></feOffset> <feGaussianBlur stdDeviation="2"></feGaussianBlur> <feComposite in2="hardAlpha" operator="out"></feComposite> <feColorMatrix type="matrix" values="0 0 0 0 0 0 0 0 0 0 0 0 0 0 0 0 0 0 0.25 0"></feColorMatrix> <feBlend mode="normal" in2="BackgroundImageFix" result="effect1_dropShadow_87_251"></feBlend> <feBlend mode="normal" in="SourceGraphic" in2="effect1_dropShadow_87_251" result="shape"></feBlend> </filter> <radialGradient id="paint0_radial_87_251" cx="0" cy="0" r="1" gradientUnits="userSpaceOnUse" gradientTransform="translate(36 57.5) rotate(90) scale(70.5 32)"> <stop stop-color="#F0AFBB"></stop> <stop offset="1" stop-color="#FF5C79"></stop> </radialGradient> <linearGradient id="paint1_linear_87_251" x1="11.2438" y1="-50.2492" x2="77.5109" y2="-33.1829" gradientUnits="userSpaceOnUse"> <stop stop-color="#DB80FF"></stop> <stop offset="1" stop-color="#FFEAEE" stop-opacity="0.6"></stop> </linearGradient> <radialGradient id="paint2_radial_87_251" cx="0" cy="0" r="1" gradientUnits="userSpaceOnUse" gradientTransform="translate(54.0896 78.4395) rotate(-98.5564) scale(81.1895 58.8431)"> <stop stop-color="#FFEAEE"></stop> <stop offset="1" stop-color="#CC1838"></stop> </radialGradient> <linearGradient id="paint3_linear_87_251" x1="57.9701" y1="85.7" x2="6.18522" y2="84.1909" gradientUnits="userSpaceOnUse"> <stop stop-color="#D5425C" stop-opacity="0.8"></stop> <stop offset="1" stop-color="#FFEAEE" stop-opacity="0.52"></stop> </linearGradient> </defs> </svg> 