<?xml version="1.0" encoding="UTF-8"?> <svg xmlns="http://www.w3.org/2000/svg" width="158" height="98" viewBox="0 0 158 98" fill="none"> <g filter="url(#filter0_d_87_250)"> <path d="M55.4075 79.76C55.4075 78.352 54.2555 77.2 52.8475 77.2H38.7675C37.3595 77.2 36.2075 76.048 36.2075 74.64V2.96C36.2075 1.55199 35.0555 0.399994 33.6475 0.399994H6.7675C5.3595 0.399994 4.2075 1.55199 4.2075 2.96V10.64C4.2075 12.048 5.3595 13.2 6.7675 13.2H20.8475C22.2555 13.2 23.4075 14.352 23.4075 15.76V74.64C23.4075 76.048 22.2555 77.2 20.8475 77.2H6.7675C5.3595 77.2 4.2075 78.352 4.2075 79.76V87.44C4.2075 88.848 5.3595 90 6.7675 90H52.8475C54.2555 90 55.4075 88.848 55.4075 87.44V79.76ZM138.607 12.944C140.015 12.944 141.167 14.096 141.167 15.504V36.368C141.167 37.776 140.015 38.928 138.607 38.928H92.5275C84.0795 38.928 77.1675 45.84 77.1675 54.288V77.456V87.44C77.1675 88.848 78.3195 90 79.7275 90H89.7115H151.151C152.56 90 153.712 88.848 153.712 87.44V80.016C153.712 78.608 152.56 77.456 151.151 77.456H92.2715C90.8635 77.456 89.7115 76.304 89.7115 74.896V54.032C89.7115 52.624 90.8635 51.472 92.2715 51.472H138.351C146.927 51.472 153.712 44.56 153.712 36.112V15.76C153.712 7.312 146.927 0.399994 138.351 0.399994H92.2715C90.8635 0.399994 89.7115 1.55199 89.7115 2.96V10.384C89.7115 11.792 90.8635 12.944 92.2715 12.944H138.607Z" fill="url(#paint0_radial_87_250)"></path> <path d="M55.4075 79.76C55.4075 78.352 54.2555 77.2 52.8475 77.2H38.7675C37.3595 77.2 36.2075 76.048 36.2075 74.64V2.96C36.2075 1.55199 35.0555 0.399994 33.6475 0.399994H6.7675C5.3595 0.399994 4.2075 1.55199 4.2075 2.96V10.64C4.2075 12.048 5.3595 13.2 6.7675 13.2H20.8475C22.2555 13.2 23.4075 14.352 23.4075 15.76V74.64C23.4075 76.048 22.2555 77.2 20.8475 77.2H6.7675C5.3595 77.2 4.2075 78.352 4.2075 79.76V87.44C4.2075 88.848 5.3595 90 6.7675 90H52.8475C54.2555 90 55.4075 88.848 55.4075 87.44V79.76ZM138.607 12.944C140.015 12.944 141.167 14.096 141.167 15.504V36.368C141.167 37.776 140.015 38.928 138.607 38.928H92.5275C84.0795 38.928 77.1675 45.84 77.1675 54.288V77.456V87.44C77.1675 88.848 78.3195 90 79.7275 90H89.7115H151.151C152.56 90 153.712 88.848 153.712 87.44V80.016C153.712 78.608 152.56 77.456 151.151 77.456H92.2715C90.8635 77.456 89.7115 76.304 89.7115 74.896V54.032C89.7115 52.624 90.8635 51.472 92.2715 51.472H138.351C146.927 51.472 153.712 44.56 153.712 36.112V15.76C153.712 7.312 146.927 0.399994 138.351 0.399994H92.2715C90.8635 0.399994 89.7115 1.55199 89.7115 2.96V10.384C89.7115 11.792 90.8635 12.944 92.2715 12.944H138.607Z" fill="url(#paint1_linear_87_250)" fill-opacity="0.2"></path> <path d="M55.4075 79.76C55.4075 78.352 54.2555 77.2 52.8475 77.2H38.7675C37.3595 77.2 36.2075 76.048 36.2075 74.64V2.96C36.2075 1.55199 35.0555 0.399994 33.6475 0.399994H6.7675C5.3595 0.399994 4.2075 1.55199 4.2075 2.96V10.64C4.2075 12.048 5.3595 13.2 6.7675 13.2H20.8475C22.2555 13.2 23.4075 14.352 23.4075 15.76V74.64C23.4075 76.048 22.2555 77.2 20.8475 77.2H6.7675C5.3595 77.2 4.2075 78.352 4.2075 79.76V87.44C4.2075 88.848 5.3595 90 6.7675 90H52.8475C54.2555 90 55.4075 88.848 55.4075 87.44V79.76ZM138.607 12.944C140.015 12.944 141.167 14.096 141.167 15.504V36.368C141.167 37.776 140.015 38.928 138.607 38.928H92.5275C84.0795 38.928 77.1675 45.84 77.1675 54.288V77.456V87.44C77.1675 88.848 78.3195 90 79.7275 90H89.7115H151.151C152.56 90 153.712 88.848 153.712 87.44V80.016C153.712 78.608 152.56 77.456 151.151 77.456H92.2715C90.8635 77.456 89.7115 76.304 89.7115 74.896V54.032C89.7115 52.624 90.8635 51.472 92.2715 51.472H138.351C146.927 51.472 153.712 44.56 153.712 36.112V15.76C153.712 7.312 146.927 0.399994 138.351 0.399994H92.2715C90.8635 0.399994 89.7115 1.55199 89.7115 2.96V10.384C89.7115 11.792 90.8635 12.944 92.2715 12.944H138.607Z" fill="url(#paint2_radial_87_250)" fill-opacity="0.2"></path> <path d="M55.4075 79.76C55.4075 78.352 54.2555 77.2 52.8475 77.2H38.7675C37.3595 77.2 36.2075 76.048 36.2075 74.64V2.96C36.2075 1.55199 35.0555 0.399994 33.6475 0.399994H6.7675C5.3595 0.399994 4.2075 1.55199 4.2075 2.96V10.64C4.2075 12.048 5.3595 13.2 6.7675 13.2H20.8475C22.2555 13.2 23.4075 14.352 23.4075 15.76V74.64C23.4075 76.048 22.2555 77.2 20.8475 77.2H6.7675C5.3595 77.2 4.2075 78.352 4.2075 79.76V87.44C4.2075 88.848 5.3595 90 6.7675 90H52.8475C54.2555 90 55.4075 88.848 55.4075 87.44V79.76ZM138.607 12.944C140.015 12.944 141.167 14.096 141.167 15.504V36.368C141.167 37.776 140.015 38.928 138.607 38.928H92.5275C84.0795 38.928 77.1675 45.84 77.1675 54.288V77.456V87.44C77.1675 88.848 78.3195 90 79.7275 90H89.7115H151.151C152.56 90 153.712 88.848 153.712 87.44V80.016C153.712 78.608 152.56 77.456 151.151 77.456H92.2715C90.8635 77.456 89.7115 76.304 89.7115 74.896V54.032C89.7115 52.624 90.8635 51.472 92.2715 51.472H138.351C146.927 51.472 153.712 44.56 153.712 36.112V15.76C153.712 7.312 146.927 0.399994 138.351 0.399994H92.2715C90.8635 0.399994 89.7115 1.55199 89.7115 2.96V10.384C89.7115 11.792 90.8635 12.944 92.2715 12.944H138.607Z" fill="url(#paint3_linear_87_250)" fill-opacity="0.2"></path> </g> <defs> <filter id="filter0_d_87_250" x="0.20752" y="0.400024" width="157.504" height="97.6" filterUnits="userSpaceOnUse" color-interpolation-filters="sRGB"> <feFlood flood-opacity="0" result="BackgroundImageFix"></feFlood> <feColorMatrix in="SourceAlpha" type="matrix" values="0 0 0 0 0 0 0 0 0 0 0 0 0 0 0 0 0 0 127 0" result="hardAlpha"></feColorMatrix> <feOffset dy="4"></feOffset> <feGaussianBlur stdDeviation="2"></feGaussianBlur> <feComposite in2="hardAlpha" operator="out"></feComposite> <feColorMatrix type="matrix" values="0 0 0 0 0 0 0 0 0 0 0 0 0 0 0 0 0 0 0.25 0"></feColorMatrix> <feBlend mode="normal" in2="BackgroundImageFix" result="effect1_dropShadow_87_250"></feBlend> <feBlend mode="normal" in="SourceGraphic" in2="effect1_dropShadow_87_250" result="shape"></feBlend> </filter> <radialGradient id="paint0_radial_87_250" cx="0" cy="0" r="1" gradientUnits="userSpaceOnUse" gradientTransform="translate(85.5 57.5) rotate(90) scale(70.5 81.5)"> <stop stop-color="#F0AFBB"></stop> <stop offset="1" stop-color="#FF5C79"></stop> </radialGradient> <linearGradient id="paint1_linear_87_250" x1="22.449" y1="-50.2492" x2="148.281" y2="32.2861" gradientUnits="userSpaceOnUse"> <stop stop-color="#DB80FF"></stop> <stop offset="1" stop-color="#FFEAEE" stop-opacity="0.6"></stop> </linearGradient> <radialGradient id="paint2_radial_87_250" cx="0" cy="0" r="1" gradientUnits="userSpaceOnUse" gradientTransform="translate(131.572 78.4395) rotate(-110.967) scale(85.9786 141.518)"> <stop stop-color="#FFEAEE"></stop> <stop offset="1" stop-color="#CC1838"></stop> </radialGradient> <linearGradient id="paint3_linear_87_250" x1="141.455" y1="85.7" x2="10.1767" y2="75.9564" gradientUnits="userSpaceOnUse"> <stop stop-color="#D5425C" stop-opacity="0.8"></stop> <stop offset="1" stop-color="#FFEAEE" stop-opacity="0.52"></stop> </linearGradient> </defs> </svg> 