<?xml version="1.0" encoding="UTF-8"?> <svg xmlns="http://www.w3.org/2000/svg" width="158" height="98" viewBox="0 0 158 98" fill="none"> <g filter="url(#filter0_d_87_252)"> <path d="M55.4075 79.76C55.4075 78.352 54.2555 77.2 52.8475 77.2H38.7675C37.3595 77.2 36.2075 76.048 36.2075 74.64V2.96C36.2075 1.55199 35.0555 0.399994 33.6475 0.399994H6.7675C5.3595 0.399994 4.2075 1.55199 4.2075 2.96V10.64C4.2075 12.048 5.3595 13.2 6.7675 13.2H20.8475C22.2555 13.2 23.4075 14.352 23.4075 15.76V74.64C23.4075 76.048 22.2555 77.2 20.8475 77.2H6.7675C5.3595 77.2 4.2075 78.352 4.2075 79.76V87.44C4.2075 88.848 5.3595 90 6.7675 90H52.8475C54.2555 90 55.4075 88.848 55.4075 87.44V79.76ZM153.967 41.36C153.967 39.952 152.815 38.8 151.408 38.8H143.728C142.319 38.8 141.167 37.648 141.167 36.24V2.96C141.167 1.55199 140.015 0.399994 138.607 0.399994H130.927C129.519 0.399994 128.367 1.55199 128.367 2.96V36.24C128.367 37.648 127.215 38.8 125.807 38.8H92.5275C91.1195 38.8 89.9675 37.648 89.9675 36.24V2.96C89.9675 1.55199 88.8155 0.399994 87.4075 0.399994H79.7275C78.3195 0.399994 77.1675 1.55199 77.1675 2.96V49.04C77.1675 50.448 78.3195 51.6 79.7275 51.6H125.807C127.215 51.6 128.367 52.752 128.367 54.16V87.44C128.367 88.848 129.519 90 130.927 90H138.607C140.015 90 141.167 88.848 141.167 87.44V54.16C141.167 52.752 142.319 51.6 143.728 51.6H151.408C152.815 51.6 153.967 50.448 153.967 49.04V41.36Z" fill="url(#paint0_radial_87_252)"></path> <path d="M55.4075 79.76C55.4075 78.352 54.2555 77.2 52.8475 77.2H38.7675C37.3595 77.2 36.2075 76.048 36.2075 74.64V2.96C36.2075 1.55199 35.0555 0.399994 33.6475 0.399994H6.7675C5.3595 0.399994 4.2075 1.55199 4.2075 2.96V10.64C4.2075 12.048 5.3595 13.2 6.7675 13.2H20.8475C22.2555 13.2 23.4075 14.352 23.4075 15.76V74.64C23.4075 76.048 22.2555 77.2 20.8475 77.2H6.7675C5.3595 77.2 4.2075 78.352 4.2075 79.76V87.44C4.2075 88.848 5.3595 90 6.7675 90H52.8475C54.2555 90 55.4075 88.848 55.4075 87.44V79.76ZM153.967 41.36C153.967 39.952 152.815 38.8 151.408 38.8H143.728C142.319 38.8 141.167 37.648 141.167 36.24V2.96C141.167 1.55199 140.015 0.399994 138.607 0.399994H130.927C129.519 0.399994 128.367 1.55199 128.367 2.96V36.24C128.367 37.648 127.215 38.8 125.807 38.8H92.5275C91.1195 38.8 89.9675 37.648 89.9675 36.24V2.96C89.9675 1.55199 88.8155 0.399994 87.4075 0.399994H79.7275C78.3195 0.399994 77.1675 1.55199 77.1675 2.96V49.04C77.1675 50.448 78.3195 51.6 79.7275 51.6H125.807C127.215 51.6 128.367 52.752 128.367 54.16V87.44C128.367 88.848 129.519 90 130.927 90H138.607C140.015 90 141.167 88.848 141.167 87.44V54.16C141.167 52.752 142.319 51.6 143.728 51.6H151.408C152.815 51.6 153.967 50.448 153.967 49.04V41.36Z" fill="url(#paint1_linear_87_252)" fill-opacity="0.2"></path> <path d="M55.4075 79.76C55.4075 78.352 54.2555 77.2 52.8475 77.2H38.7675C37.3595 77.2 36.2075 76.048 36.2075 74.64V2.96C36.2075 1.55199 35.0555 0.399994 33.6475 0.399994H6.7675C5.3595 0.399994 4.2075 1.55199 4.2075 2.96V10.64C4.2075 12.048 5.3595 13.2 6.7675 13.2H20.8475C22.2555 13.2 23.4075 14.352 23.4075 15.76V74.64C23.4075 76.048 22.2555 77.2 20.8475 77.2H6.7675C5.3595 77.2 4.2075 78.352 4.2075 79.76V87.44C4.2075 88.848 5.3595 90 6.7675 90H52.8475C54.2555 90 55.4075 88.848 55.4075 87.44V79.76ZM153.967 41.36C153.967 39.952 152.815 38.8 151.408 38.8H143.728C142.319 38.8 141.167 37.648 141.167 36.24V2.96C141.167 1.55199 140.015 0.399994 138.607 0.399994H130.927C129.519 0.399994 128.367 1.55199 128.367 2.96V36.24C128.367 37.648 127.215 38.8 125.807 38.8H92.5275C91.1195 38.8 89.9675 37.648 89.9675 36.24V2.96C89.9675 1.55199 88.8155 0.399994 87.4075 0.399994H79.7275C78.3195 0.399994 77.1675 1.55199 77.1675 2.96V49.04C77.1675 50.448 78.3195 51.6 79.7275 51.6H125.807C127.215 51.6 128.367 52.752 128.367 54.16V87.44C128.367 88.848 129.519 90 130.927 90H138.607C140.015 90 141.167 88.848 141.167 87.44V54.16C141.167 52.752 142.319 51.6 143.728 51.6H151.408C152.815 51.6 153.967 50.448 153.967 49.04V41.36Z" fill="url(#paint2_radial_87_252)" fill-opacity="0.2"></path> <path d="M55.4075 79.76C55.4075 78.352 54.2555 77.2 52.8475 77.2H38.7675C37.3595 77.2 36.2075 76.048 36.2075 74.64V2.96C36.2075 1.55199 35.0555 0.399994 33.6475 0.399994H6.7675C5.3595 0.399994 4.2075 1.55199 4.2075 2.96V10.64C4.2075 12.048 5.3595 13.2 6.7675 13.2H20.8475C22.2555 13.2 23.4075 14.352 23.4075 15.76V74.64C23.4075 76.048 22.2555 77.2 20.8475 77.2H6.7675C5.3595 77.2 4.2075 78.352 4.2075 79.76V87.44C4.2075 88.848 5.3595 90 6.7675 90H52.8475C54.2555 90 55.4075 88.848 55.4075 87.44V79.76ZM153.967 41.36C153.967 39.952 152.815 38.8 151.408 38.8H143.728C142.319 38.8 141.167 37.648 141.167 36.24V2.96C141.167 1.55199 140.015 0.399994 138.607 0.399994H130.927C129.519 0.399994 128.367 1.55199 128.367 2.96V36.24C128.367 37.648 127.215 38.8 125.807 38.8H92.5275C91.1195 38.8 89.9675 37.648 89.9675 36.24V2.96C89.9675 1.55199 88.8155 0.399994 87.4075 0.399994H79.7275C78.3195 0.399994 77.1675 1.55199 77.1675 2.96V49.04C77.1675 50.448 78.3195 51.6 79.7275 51.6H125.807C127.215 51.6 128.367 52.752 128.367 54.16V87.44C128.367 88.848 129.519 90 130.927 90H138.607C140.015 90 141.167 88.848 141.167 87.44V54.16C141.167 52.752 142.319 51.6 143.728 51.6H151.408C152.815 51.6 153.967 50.448 153.967 49.04V41.36Z" fill="url(#paint3_linear_87_252)" fill-opacity="0.2"></path> </g> <defs> <filter id="filter0_d_87_252" x="0.20752" y="0.399902" width="157.76" height="97.6001" filterUnits="userSpaceOnUse" color-interpolation-filters="sRGB"> <feFlood flood-opacity="0" result="BackgroundImageFix"></feFlood> <feColorMatrix in="SourceAlpha" type="matrix" values="0 0 0 0 0 0 0 0 0 0 0 0 0 0 0 0 0 0 127 0" result="hardAlpha"></feColorMatrix> <feOffset dy="4"></feOffset> <feGaussianBlur stdDeviation="2"></feGaussianBlur> <feComposite in2="hardAlpha" operator="out"></feComposite> <feColorMatrix type="matrix" values="0 0 0 0 0 0 0 0 0 0 0 0 0 0 0 0 0 0 0.25 0"></feColorMatrix> <feBlend mode="normal" in2="BackgroundImageFix" result="effect1_dropShadow_87_252"></feBlend> <feBlend mode="normal" in="SourceGraphic" in2="effect1_dropShadow_87_252" result="shape"></feBlend> </filter> <radialGradient id="paint0_radial_87_252" cx="0" cy="0" r="1" gradientUnits="userSpaceOnUse" gradientTransform="translate(85.5 57.5) rotate(90) scale(70.5 81.5)"> <stop stop-color="#F0AFBB"></stop> <stop offset="1" stop-color="#FF5C79"></stop> </radialGradient> <linearGradient id="paint1_linear_87_252" x1="22.449" y1="-50.2492" x2="148.281" y2="32.2861" gradientUnits="userSpaceOnUse"> <stop stop-color="#DB80FF"></stop> <stop offset="1" stop-color="#FFEAEE" stop-opacity="0.6"></stop> </linearGradient> <radialGradient id="paint2_radial_87_252" cx="0" cy="0" r="1" gradientUnits="userSpaceOnUse" gradientTransform="translate(131.572 78.4395) rotate(-110.967) scale(85.9786 141.518)"> <stop stop-color="#FFEAEE"></stop> <stop offset="1" stop-color="#CC1838"></stop> </radialGradient> <linearGradient id="paint3_linear_87_252" x1="141.455" y1="85.7" x2="10.1767" y2="75.9564" gradientUnits="userSpaceOnUse"> <stop stop-color="#D5425C" stop-opacity="0.8"></stop> <stop offset="1" stop-color="#FFEAEE" stop-opacity="0.52"></stop> </linearGradient> </defs> </svg> 