<?xml version="1.0" encoding="UTF-8"?> <svg xmlns="http://www.w3.org/2000/svg" width="184" height="98" viewBox="0 0 184 98" fill="none"> <g filter="url(#filter0_d_87_249)"> <path d="M65.835 12.944C67.243 12.944 68.395 14.096 68.395 15.504V36.368C68.395 37.776 67.243 38.928 65.835 38.928H19.755C11.307 38.928 4.395 45.84 4.395 54.288V77.456V87.44C4.395 88.848 5.547 90 6.955 90H16.939H78.379C79.787 90 80.939 88.848 80.939 87.44V80.016C80.939 78.608 79.787 77.456 78.379 77.456H19.499C18.091 77.456 16.939 76.304 16.939 74.896V54.032C16.939 52.624 18.091 51.472 19.499 51.472H65.579C74.155 51.472 80.939 44.56 80.939 36.112V15.76C80.939 7.312 74.155 0.399994 65.579 0.399994H19.499C18.091 0.399994 16.939 1.55199 16.939 2.96V10.384C16.939 11.792 18.091 12.944 19.499 12.944H65.835ZM134.98 49.04C134.98 50.448 136.132 51.6 137.54 51.6H145.22C146.628 51.6 147.78 50.448 147.78 49.04V41.36C147.78 39.952 146.628 38.8 145.22 38.8H137.54C136.132 38.8 134.98 39.952 134.98 41.36V49.04ZM166.98 74.64C166.98 76.048 165.828 77.2 164.42 77.2H118.34C116.932 77.2 115.78 76.048 115.78 74.64V15.76C115.78 14.352 116.932 13.2 118.34 13.2H164.42C165.828 13.2 166.98 14.352 166.98 15.76V74.64ZM118.34 0.399994C109.892 0.399994 102.98 7.312 102.98 15.76V74.64C102.98 83.088 109.892 90 118.34 90H164.42C172.868 90 179.78 83.088 179.78 74.64V15.76C179.78 7.312 172.868 0.399994 164.42 0.399994H118.34Z" fill="url(#paint0_radial_87_249)"></path> <path d="M65.835 12.944C67.243 12.944 68.395 14.096 68.395 15.504V36.368C68.395 37.776 67.243 38.928 65.835 38.928H19.755C11.307 38.928 4.395 45.84 4.395 54.288V77.456V87.44C4.395 88.848 5.547 90 6.955 90H16.939H78.379C79.787 90 80.939 88.848 80.939 87.44V80.016C80.939 78.608 79.787 77.456 78.379 77.456H19.499C18.091 77.456 16.939 76.304 16.939 74.896V54.032C16.939 52.624 18.091 51.472 19.499 51.472H65.579C74.155 51.472 80.939 44.56 80.939 36.112V15.76C80.939 7.312 74.155 0.399994 65.579 0.399994H19.499C18.091 0.399994 16.939 1.55199 16.939 2.96V10.384C16.939 11.792 18.091 12.944 19.499 12.944H65.835ZM134.98 49.04C134.98 50.448 136.132 51.6 137.54 51.6H145.22C146.628 51.6 147.78 50.448 147.78 49.04V41.36C147.78 39.952 146.628 38.8 145.22 38.8H137.54C136.132 38.8 134.98 39.952 134.98 41.36V49.04ZM166.98 74.64C166.98 76.048 165.828 77.2 164.42 77.2H118.34C116.932 77.2 115.78 76.048 115.78 74.64V15.76C115.78 14.352 116.932 13.2 118.34 13.2H164.42C165.828 13.2 166.98 14.352 166.98 15.76V74.64ZM118.34 0.399994C109.892 0.399994 102.98 7.312 102.98 15.76V74.64C102.98 83.088 109.892 90 118.34 90H164.42C172.868 90 179.78 83.088 179.78 74.64V15.76C179.78 7.312 172.868 0.399994 164.42 0.399994H118.34Z" fill="url(#paint1_linear_87_249)" fill-opacity="0.2"></path> <path d="M65.835 12.944C67.243 12.944 68.395 14.096 68.395 15.504V36.368C68.395 37.776 67.243 38.928 65.835 38.928H19.755C11.307 38.928 4.395 45.84 4.395 54.288V77.456V87.44C4.395 88.848 5.547 90 6.955 90H16.939H78.379C79.787 90 80.939 88.848 80.939 87.44V80.016C80.939 78.608 79.787 77.456 78.379 77.456H19.499C18.091 77.456 16.939 76.304 16.939 74.896V54.032C16.939 52.624 18.091 51.472 19.499 51.472H65.579C74.155 51.472 80.939 44.56 80.939 36.112V15.76C80.939 7.312 74.155 0.399994 65.579 0.399994H19.499C18.091 0.399994 16.939 1.55199 16.939 2.96V10.384C16.939 11.792 18.091 12.944 19.499 12.944H65.835ZM134.98 49.04C134.98 50.448 136.132 51.6 137.54 51.6H145.22C146.628 51.6 147.78 50.448 147.78 49.04V41.36C147.78 39.952 146.628 38.8 145.22 38.8H137.54C136.132 38.8 134.98 39.952 134.98 41.36V49.04ZM166.98 74.64C166.98 76.048 165.828 77.2 164.42 77.2H118.34C116.932 77.2 115.78 76.048 115.78 74.64V15.76C115.78 14.352 116.932 13.2 118.34 13.2H164.42C165.828 13.2 166.98 14.352 166.98 15.76V74.64ZM118.34 0.399994C109.892 0.399994 102.98 7.312 102.98 15.76V74.64C102.98 83.088 109.892 90 118.34 90H164.42C172.868 90 179.78 83.088 179.78 74.64V15.76C179.78 7.312 172.868 0.399994 164.42 0.399994H118.34Z" fill="url(#paint2_radial_87_249)" fill-opacity="0.2"></path> <path d="M65.835 12.944C67.243 12.944 68.395 14.096 68.395 15.504V36.368C68.395 37.776 67.243 38.928 65.835 38.928H19.755C11.307 38.928 4.395 45.84 4.395 54.288V77.456V87.44C4.395 88.848 5.547 90 6.955 90H16.939H78.379C79.787 90 80.939 88.848 80.939 87.44V80.016C80.939 78.608 79.787 77.456 78.379 77.456H19.499C18.091 77.456 16.939 76.304 16.939 74.896V54.032C16.939 52.624 18.091 51.472 19.499 51.472H65.579C74.155 51.472 80.939 44.56 80.939 36.112V15.76C80.939 7.312 74.155 0.399994 65.579 0.399994H19.499C18.091 0.399994 16.939 1.55199 16.939 2.96V10.384C16.939 11.792 18.091 12.944 19.499 12.944H65.835ZM134.98 49.04C134.98 50.448 136.132 51.6 137.54 51.6H145.22C146.628 51.6 147.78 50.448 147.78 49.04V41.36C147.78 39.952 146.628 38.8 145.22 38.8H137.54C136.132 38.8 134.98 39.952 134.98 41.36V49.04ZM166.98 74.64C166.98 76.048 165.828 77.2 164.42 77.2H118.34C116.932 77.2 115.78 76.048 115.78 74.64V15.76C115.78 14.352 116.932 13.2 118.34 13.2H164.42C165.828 13.2 166.98 14.352 166.98 15.76V74.64ZM118.34 0.399994C109.892 0.399994 102.98 7.312 102.98 15.76V74.64C102.98 83.088 109.892 90 118.34 90H164.42C172.868 90 179.78 83.088 179.78 74.64V15.76C179.78 7.312 172.868 0.399994 164.42 0.399994H118.34Z" fill="url(#paint3_linear_87_249)" fill-opacity="0.2"></path> </g> <defs> <filter id="filter0_d_87_249" x="0.39502" y="0.400024" width="183.385" height="97.6" filterUnits="userSpaceOnUse" color-interpolation-filters="sRGB"> <feFlood flood-opacity="0" result="BackgroundImageFix"></feFlood> <feColorMatrix in="SourceAlpha" type="matrix" values="0 0 0 0 0 0 0 0 0 0 0 0 0 0 0 0 0 0 127 0" result="hardAlpha"></feColorMatrix> <feOffset dy="4"></feOffset> <feGaussianBlur stdDeviation="2"></feGaussianBlur> <feComposite in2="hardAlpha" operator="out"></feComposite> <feColorMatrix type="matrix" values="0 0 0 0 0 0 0 0 0 0 0 0 0 0 0 0 0 0 0.25 0"></feColorMatrix> <feBlend mode="normal" in2="BackgroundImageFix" result="effect1_dropShadow_87_249"></feBlend> <feBlend mode="normal" in="SourceGraphic" in2="effect1_dropShadow_87_249" result="shape"></feBlend> </filter> <radialGradient id="paint0_radial_87_249" cx="0" cy="0" r="1" gradientUnits="userSpaceOnUse" gradientTransform="translate(98.5 57.5) rotate(90) scale(70.5 94.5)"> <stop stop-color="#F0AFBB"></stop> <stop offset="1" stop-color="#FF5C79"></stop> </radialGradient> <linearGradient id="paint1_linear_87_249" x1="25.3918" y1="-50.2492" x2="157.596" y2="50.2979" gradientUnits="userSpaceOnUse"> <stop stop-color="#DB80FF"></stop> <stop offset="1" stop-color="#FFEAEE" stop-opacity="0.6"></stop> </linearGradient> <radialGradient id="paint2_radial_87_249" cx="0" cy="0" r="1" gradientUnits="userSpaceOnUse" gradientTransform="translate(151.921 78.4395) rotate(-113.957) scale(87.8541 160.589)"> <stop stop-color="#FFEAEE"></stop> <stop offset="1" stop-color="#CC1838"></stop> </radialGradient> <linearGradient id="paint3_linear_87_249" x1="163.381" y1="85.7" x2="11.4486" y2="72.6248" gradientUnits="userSpaceOnUse"> <stop stop-color="#D5425C" stop-opacity="0.8"></stop> <stop offset="1" stop-color="#FFEAEE" stop-opacity="0.52"></stop> </linearGradient> </defs> </svg> 