<?xml version="1.0" encoding="UTF-8"?> <svg xmlns="http://www.w3.org/2000/svg" width="85" height="98" viewBox="0 0 85 98" fill="none"> <g filter="url(#filter0_d_87_253)"> <path d="M80.9875 41.36C80.9875 39.952 79.8355 38.8 78.4275 38.8H70.7475C69.3395 38.8 68.1875 37.648 68.1875 36.24V2.96C68.1875 1.55199 67.0355 0.399994 65.6275 0.399994H57.9475C56.5395 0.399994 55.3875 1.55199 55.3875 2.96V36.24C55.3875 37.648 54.2355 38.8 52.8275 38.8H19.5475C18.1395 38.8 16.9875 37.648 16.9875 36.24V2.96C16.9875 1.55199 15.8355 0.399994 14.4275 0.399994H6.7475C5.3395 0.399994 4.1875 1.55199 4.1875 2.96V49.04C4.1875 50.448 5.3395 51.6 6.7475 51.6H52.8275C54.2355 51.6 55.3875 52.752 55.3875 54.16V87.44C55.3875 88.848 56.5395 90 57.9475 90H65.6275C67.0355 90 68.1875 88.848 68.1875 87.44V54.16C68.1875 52.752 69.3395 51.6 70.7475 51.6H78.4275C79.8355 51.6 80.9875 50.448 80.9875 49.04V41.36Z" fill="url(#paint0_radial_87_253)"></path> <path d="M80.9875 41.36C80.9875 39.952 79.8355 38.8 78.4275 38.8H70.7475C69.3395 38.8 68.1875 37.648 68.1875 36.24V2.96C68.1875 1.55199 67.0355 0.399994 65.6275 0.399994H57.9475C56.5395 0.399994 55.3875 1.55199 55.3875 2.96V36.24C55.3875 37.648 54.2355 38.8 52.8275 38.8H19.5475C18.1395 38.8 16.9875 37.648 16.9875 36.24V2.96C16.9875 1.55199 15.8355 0.399994 14.4275 0.399994H6.7475C5.3395 0.399994 4.1875 1.55199 4.1875 2.96V49.04C4.1875 50.448 5.3395 51.6 6.7475 51.6H52.8275C54.2355 51.6 55.3875 52.752 55.3875 54.16V87.44C55.3875 88.848 56.5395 90 57.9475 90H65.6275C67.0355 90 68.1875 88.848 68.1875 87.44V54.16C68.1875 52.752 69.3395 51.6 70.7475 51.6H78.4275C79.8355 51.6 80.9875 50.448 80.9875 49.04V41.36Z" fill="url(#paint1_linear_87_253)" fill-opacity="0.2"></path> <path d="M80.9875 41.36C80.9875 39.952 79.8355 38.8 78.4275 38.8H70.7475C69.3395 38.8 68.1875 37.648 68.1875 36.24V2.96C68.1875 1.55199 67.0355 0.399994 65.6275 0.399994H57.9475C56.5395 0.399994 55.3875 1.55199 55.3875 2.96V36.24C55.3875 37.648 54.2355 38.8 52.8275 38.8H19.5475C18.1395 38.8 16.9875 37.648 16.9875 36.24V2.96C16.9875 1.55199 15.8355 0.399994 14.4275 0.399994H6.7475C5.3395 0.399994 4.1875 1.55199 4.1875 2.96V49.04C4.1875 50.448 5.3395 51.6 6.7475 51.6H52.8275C54.2355 51.6 55.3875 52.752 55.3875 54.16V87.44C55.3875 88.848 56.5395 90 57.9475 90H65.6275C67.0355 90 68.1875 88.848 68.1875 87.44V54.16C68.1875 52.752 69.3395 51.6 70.7475 51.6H78.4275C79.8355 51.6 80.9875 50.448 80.9875 49.04V41.36Z" fill="url(#paint2_radial_87_253)" fill-opacity="0.2"></path> <path d="M80.9875 41.36C80.9875 39.952 79.8355 38.8 78.4275 38.8H70.7475C69.3395 38.8 68.1875 37.648 68.1875 36.24V2.96C68.1875 1.55199 67.0355 0.399994 65.6275 0.399994H57.9475C56.5395 0.399994 55.3875 1.55199 55.3875 2.96V36.24C55.3875 37.648 54.2355 38.8 52.8275 38.8H19.5475C18.1395 38.8 16.9875 37.648 16.9875 36.24V2.96C16.9875 1.55199 15.8355 0.399994 14.4275 0.399994H6.7475C5.3395 0.399994 4.1875 1.55199 4.1875 2.96V49.04C4.1875 50.448 5.3395 51.6 6.7475 51.6H52.8275C54.2355 51.6 55.3875 52.752 55.3875 54.16V87.44C55.3875 88.848 56.5395 90 57.9475 90H65.6275C67.0355 90 68.1875 88.848 68.1875 87.44V54.16C68.1875 52.752 69.3395 51.6 70.7475 51.6H78.4275C79.8355 51.6 80.9875 50.448 80.9875 49.04V41.36Z" fill="url(#paint3_linear_87_253)" fill-opacity="0.2"></path> </g> <defs> <filter id="filter0_d_87_253" x="0.1875" y="0.400024" width="84.8" height="97.6" filterUnits="userSpaceOnUse" color-interpolation-filters="sRGB"> <feFlood flood-opacity="0" result="BackgroundImageFix"></feFlood> <feColorMatrix in="SourceAlpha" type="matrix" values="0 0 0 0 0 0 0 0 0 0 0 0 0 0 0 0 0 0 127 0" result="hardAlpha"></feColorMatrix> <feOffset dy="4"></feOffset> <feGaussianBlur stdDeviation="2"></feGaussianBlur> <feComposite in2="hardAlpha" operator="out"></feComposite> <feColorMatrix type="matrix" values="0 0 0 0 0 0 0 0 0 0 0 0 0 0 0 0 0 0 0.25 0"></feColorMatrix> <feBlend mode="normal" in2="BackgroundImageFix" result="effect1_dropShadow_87_253"></feBlend> <feBlend mode="normal" in="SourceGraphic" in2="effect1_dropShadow_87_253" result="shape"></feBlend> </filter> <radialGradient id="paint0_radial_87_253" cx="0" cy="0" r="1" gradientUnits="userSpaceOnUse" gradientTransform="translate(49 57.5) rotate(90) scale(70.5 45)"> <stop stop-color="#F0AFBB"></stop> <stop offset="1" stop-color="#FF5C79"></stop> </radialGradient> <linearGradient id="paint1_linear_87_253" x1="14.1866" y1="-50.2492" x2="102.033" y2="-18.4343" gradientUnits="userSpaceOnUse"> <stop stop-color="#DB80FF"></stop> <stop offset="1" stop-color="#FFEAEE" stop-opacity="0.6"></stop> </linearGradient> <radialGradient id="paint2_radial_87_253" cx="0" cy="0" r="1" gradientUnits="userSpaceOnUse" gradientTransform="translate(74.4384 78.4395) rotate(-101.947) scale(82.0632 81.8671)"> <stop stop-color="#FFEAEE"></stop> <stop offset="1" stop-color="#CC1838"></stop> </radialGradient> <linearGradient id="paint3_linear_87_253" x1="79.8955" y1="85.7" x2="7.13332" y2="82.7182" gradientUnits="userSpaceOnUse"> <stop stop-color="#D5425C" stop-opacity="0.8"></stop> <stop offset="1" stop-color="#FFEAEE" stop-opacity="0.52"></stop> </linearGradient> </defs> </svg> 