<?xml version="1.0" encoding="UTF-8"?> <svg xmlns="http://www.w3.org/2000/svg" width="85" height="98" viewBox="0 0 85 98" fill="none"> <g filter="url(#filter0_d_87_248)"> <path d="M68.1875 36.24C68.1875 37.648 67.0355 38.8 65.6275 38.8H19.5475C18.1395 38.8 16.9875 37.648 16.9875 36.24V15.76C16.9875 14.352 18.1395 13.2 19.5475 13.2H65.6275C67.0355 13.2 68.1875 14.352 68.1875 15.76V36.24ZM65.6275 0.399994H19.5475C11.0995 0.399994 4.1875 7.312 4.1875 15.76V36.24C4.1875 44.688 11.0995 51.6 19.5475 51.6H65.6275C67.0355 51.6 68.1875 52.752 68.1875 54.16V74.64C68.1875 76.048 67.0355 77.2 65.6275 77.2H19.5475C18.1395 77.2 16.9875 78.352 16.9875 79.76V87.44C16.9875 88.848 18.1395 90 19.5475 90H65.6275C74.0755 90 80.9875 83.088 80.9875 74.64V15.76C80.9875 7.312 74.0755 0.399994 65.6275 0.399994Z" fill="url(#paint0_radial_87_248)"></path> <path d="M68.1875 36.24C68.1875 37.648 67.0355 38.8 65.6275 38.8H19.5475C18.1395 38.8 16.9875 37.648 16.9875 36.24V15.76C16.9875 14.352 18.1395 13.2 19.5475 13.2H65.6275C67.0355 13.2 68.1875 14.352 68.1875 15.76V36.24ZM65.6275 0.399994H19.5475C11.0995 0.399994 4.1875 7.312 4.1875 15.76V36.24C4.1875 44.688 11.0995 51.6 19.5475 51.6H65.6275C67.0355 51.6 68.1875 52.752 68.1875 54.16V74.64C68.1875 76.048 67.0355 77.2 65.6275 77.2H19.5475C18.1395 77.2 16.9875 78.352 16.9875 79.76V87.44C16.9875 88.848 18.1395 90 19.5475 90H65.6275C74.0755 90 80.9875 83.088 80.9875 74.64V15.76C80.9875 7.312 74.0755 0.399994 65.6275 0.399994Z" fill="url(#paint1_linear_87_248)" fill-opacity="0.2"></path> <path d="M68.1875 36.24C68.1875 37.648 67.0355 38.8 65.6275 38.8H19.5475C18.1395 38.8 16.9875 37.648 16.9875 36.24V15.76C16.9875 14.352 18.1395 13.2 19.5475 13.2H65.6275C67.0355 13.2 68.1875 14.352 68.1875 15.76V36.24ZM65.6275 0.399994H19.5475C11.0995 0.399994 4.1875 7.312 4.1875 15.76V36.24C4.1875 44.688 11.0995 51.6 19.5475 51.6H65.6275C67.0355 51.6 68.1875 52.752 68.1875 54.16V74.64C68.1875 76.048 67.0355 77.2 65.6275 77.2H19.5475C18.1395 77.2 16.9875 78.352 16.9875 79.76V87.44C16.9875 88.848 18.1395 90 19.5475 90H65.6275C74.0755 90 80.9875 83.088 80.9875 74.64V15.76C80.9875 7.312 74.0755 0.399994 65.6275 0.399994Z" fill="url(#paint2_radial_87_248)" fill-opacity="0.2"></path> <path d="M68.1875 36.24C68.1875 37.648 67.0355 38.8 65.6275 38.8H19.5475C18.1395 38.8 16.9875 37.648 16.9875 36.24V15.76C16.9875 14.352 18.1395 13.2 19.5475 13.2H65.6275C67.0355 13.2 68.1875 14.352 68.1875 15.76V36.24ZM65.6275 0.399994H19.5475C11.0995 0.399994 4.1875 7.312 4.1875 15.76V36.24C4.1875 44.688 11.0995 51.6 19.5475 51.6H65.6275C67.0355 51.6 68.1875 52.752 68.1875 54.16V74.64C68.1875 76.048 67.0355 77.2 65.6275 77.2H19.5475C18.1395 77.2 16.9875 78.352 16.9875 79.76V87.44C16.9875 88.848 18.1395 90 19.5475 90H65.6275C74.0755 90 80.9875 83.088 80.9875 74.64V15.76C80.9875 7.312 74.0755 0.399994 65.6275 0.399994Z" fill="url(#paint3_linear_87_248)" fill-opacity="0.2"></path> </g> <defs> <filter id="filter0_d_87_248" x="0.1875" y="0.399902" width="84.8" height="97.6001" filterUnits="userSpaceOnUse" color-interpolation-filters="sRGB"> <feFlood flood-opacity="0" result="BackgroundImageFix"></feFlood> <feColorMatrix in="SourceAlpha" type="matrix" values="0 0 0 0 0 0 0 0 0 0 0 0 0 0 0 0 0 0 127 0" result="hardAlpha"></feColorMatrix> <feOffset dy="4"></feOffset> <feGaussianBlur stdDeviation="2"></feGaussianBlur> <feComposite in2="hardAlpha" operator="out"></feComposite> <feColorMatrix type="matrix" values="0 0 0 0 0 0 0 0 0 0 0 0 0 0 0 0 0 0 0.25 0"></feColorMatrix> <feBlend mode="normal" in2="BackgroundImageFix" result="effect1_dropShadow_87_248"></feBlend> <feBlend mode="normal" in="SourceGraphic" in2="effect1_dropShadow_87_248" result="shape"></feBlend> </filter> <radialGradient id="paint0_radial_87_248" cx="0" cy="0" r="1" gradientUnits="userSpaceOnUse" gradientTransform="translate(49 57.5) rotate(90) scale(70.5 45)"> <stop stop-color="#F0AFBB"></stop> <stop offset="1" stop-color="#FF5C79"></stop> </radialGradient> <linearGradient id="paint1_linear_87_248" x1="14.1866" y1="-50.2492" x2="102.033" y2="-18.4343" gradientUnits="userSpaceOnUse"> <stop stop-color="#DB80FF"></stop> <stop offset="1" stop-color="#FFEAEE" stop-opacity="0.6"></stop> </linearGradient> <radialGradient id="paint2_radial_87_248" cx="0" cy="0" r="1" gradientUnits="userSpaceOnUse" gradientTransform="translate(74.4384 78.4395) rotate(-101.947) scale(82.0632 81.8671)"> <stop stop-color="#FFEAEE"></stop> <stop offset="1" stop-color="#CC1838"></stop> </radialGradient> <linearGradient id="paint3_linear_87_248" x1="79.8955" y1="85.7" x2="7.13332" y2="82.7182" gradientUnits="userSpaceOnUse"> <stop stop-color="#D5425C" stop-opacity="0.8"></stop> <stop offset="1" stop-color="#FFEAEE" stop-opacity="0.52"></stop> </linearGradient> </defs> </svg> 