<?xml version="1.0" encoding="UTF-8"?> <svg xmlns="http://www.w3.org/2000/svg" width="60" height="60" viewBox="0 0 60 60" fill="none"> <path d="M20.2438 15V13C20.2438 8.575 20.2439 5 28.0488 5H31.9512C39.7561 5 39.7561 8.575 39.7561 13V15M20.2438 55.0001H39.7561C49.561 55.0001 51.3171 50.975 51.8293 46.0751L53.6586 26.075C54.3171 19.9751 52.6098 15 42.1951 15H17.8049C7.39024 15 5.68292 19.9751 6.34145 26.075L8.17072 46.0751C8.68292 50.975 10.439 55.0001 20.2438 55.0001Z" stroke="white" stroke-width="1.5" stroke-miterlimit="10" stroke-linecap="round" stroke-linejoin="round"></path> <path d="M53.5365 27.4999C48.0394 31.5921 41.62 34.1896 34.878 35.05M7.12196 28.1749C12.6098 32.025 18.8049 34.35 25.122 35.0749M34.878 32.5V35.05C34.878 37.7749 34.8537 40 30 40C25.1707 40 25.122 37.8 25.122 35.0749V32.5C25.122 30 25.122 30 27.5609 30H32.4391C34.878 30 34.878 30 34.878 32.5Z" stroke="white" stroke-width="1.5" stroke-miterlimit="10" stroke-linecap="round" stroke-linejoin="round"></path> </svg> 