<?xml version="1.0" encoding="UTF-8"?> <svg xmlns="http://www.w3.org/2000/svg" width="60" height="60" viewBox="0 0 60 60" fill="none"> <path d="M4.99997 55.0001H54.9999M7.77497 55.0001V32.5001C7.77497 28.35 11.5 25.0001 16.1 25.0001H43.875C48.4749 25.0001 52.2 28.35 52.2 32.5001V55.0001M13.9 25.0001V17.925C13.9 14.925 16.5999 12.5 19.95 12.5H40.0749C43.4 12.5 46.1 14.925 46.1 17.925V25.0001" stroke="white" stroke-width="1.5" stroke-linecap="round" stroke-linejoin="round"></path> <path d="M8.82504 34.95L9.75005 34.9751C11.6 35 13.0751 36.5 13.0751 38.3501V39.1751C13.0751 40.0701 13.4306 40.9286 14.0636 41.5616C14.6965 42.1944 15.555 42.5501 16.4501 42.5501C17.3451 42.5501 18.2036 42.1944 18.8366 41.5616C19.4694 40.9286 19.8251 40.0701 19.8251 39.1751V38.4C19.8251 37.505 20.1806 36.6465 20.8136 36.0135C21.4466 35.3805 22.305 35.025 23.2001 35.025C24.0951 35.025 24.9536 35.3805 25.5866 36.0135C26.2194 36.6465 26.5751 37.505 26.5751 38.4V39.1751C26.5751 40.0701 26.9306 40.9286 27.5636 41.5616C28.1966 42.1944 29.055 42.5501 29.9501 42.5501C30.8451 42.5501 31.7036 42.1944 32.3366 41.5616C32.9694 40.9286 33.3251 40.0701 33.3251 39.1751V38.4C33.3251 37.505 33.6806 36.6465 34.3136 36.0135C34.9466 35.3805 35.805 35.025 36.7001 35.025C37.5951 35.025 38.4536 35.3805 39.0866 36.0135C39.7194 36.6465 40.0751 37.505 40.0751 38.4V39.1751C40.0751 40.0701 40.4306 40.9286 41.0636 41.5616C41.6966 42.1944 42.555 42.5501 43.4501 42.5501C44.3451 42.5501 45.2036 42.1944 45.8366 41.5616C46.4694 40.9286 46.8251 40.0701 46.8251 39.1751V38.4C46.8251 36.5501 48.3251 35.025 50.2001 35.025H51.3251M20.0001 12.5V7.49999M40.0001 12.5V7.49999M30 12.5V5" stroke="white" stroke-width="1.5" stroke-linecap="round" stroke-linejoin="round"></path> </svg> 