<?xml version="1.0" encoding="UTF-8"?> <svg xmlns="http://www.w3.org/2000/svg" width="361" height="160" viewBox="0 0 361 160" fill="none"> <path d="M0 160H-2V162H0V160ZM361 158H0V162H361V158ZM2 160V0H-2V160H2Z" fill="url(#paint0_radial_111_366)" mask="url(#path-1-inside-1_111_366)"></path> <path d="M0 160H-2V162H0V160ZM361 158H0V162H361V158ZM2 160V0H-2V160H2Z" fill="url(#paint1_linear_111_366)" fill-opacity="0.2" mask="url(#path-1-inside-1_111_366)"></path> <path d="M0 160H-2V162H0V160ZM361 158H0V162H361V158ZM2 160V0H-2V160H2Z" fill="url(#paint2_radial_111_366)" fill-opacity="0.2" mask="url(#path-1-inside-1_111_366)"></path> <path d="M0 160H-2V162H0V160ZM361 158H0V162H361V158ZM2 160V0H-2V160H2Z" fill="url(#paint3_linear_111_366)" fill-opacity="0.2" mask="url(#path-1-inside-1_111_366)"></path> <defs> <radialGradient id="paint0_radial_111_366" cx="0" cy="0" r="1" gradientUnits="userSpaceOnUse" gradientTransform="translate(180.5 80) rotate(90) scale(80 180.5)"> <stop stop-color="#F0AFBB"></stop> <stop offset="1" stop-color="#FF5C79"></stop> </radialGradient> <linearGradient id="paint1_linear_111_366" x1="40.8594" y1="-42.2686" x2="191.903" y2="151.093" gradientUnits="userSpaceOnUse"> <stop stop-color="#DB80FF"></stop> <stop offset="1" stop-color="#FFEAEE" stop-opacity="0.6"></stop> </linearGradient> <radialGradient id="paint2_radial_111_366" cx="0" cy="0" r="1" gradientUnits="userSpaceOnUse" gradientTransform="translate(282.536 103.761) rotate(-126.793) scale(113.766 268.79)"> <stop stop-color="#FFEAEE"></stop> <stop offset="1" stop-color="#CC1838"></stop> </radialGradient> <linearGradient id="paint3_linear_111_366" x1="304.425" y1="112" x2="18.0865" y2="70.5213" gradientUnits="userSpaceOnUse"> <stop stop-color="#D5425C" stop-opacity="0.8"></stop> <stop offset="1" stop-color="#FFEAEE" stop-opacity="0.52"></stop> </linearGradient> </defs> </svg> 