<?xml version="1.0" encoding="UTF-8"?> <svg xmlns="http://www.w3.org/2000/svg" width="360" height="160" viewBox="0 0 360 160" fill="none"> <path d="M0 0V-2H-2V0H0ZM360 0H362V-2H360V0ZM360 160V162H362V160H360ZM0 160H-2V162H0V160ZM0 2H360V-2H0V2ZM358 0V160H362V0H358ZM360 158H0V162H360V158ZM2 160V0H-2V160H2Z" fill="url(#paint0_radial_111_330)" mask="url(#path-1-inside-1_111_330)"></path> <path d="M0 0V-2H-2V0H0ZM360 0H362V-2H360V0ZM360 160V162H362V160H360ZM0 160H-2V162H0V160ZM0 2H360V-2H0V2ZM358 0V160H362V0H358ZM360 158H0V162H360V158ZM2 160V0H-2V160H2Z" fill="url(#paint1_linear_111_330)" fill-opacity="0.2" mask="url(#path-1-inside-1_111_330)"></path> <path d="M0 0V-2H-2V0H0ZM360 0H362V-2H360V0ZM360 160V162H362V160H360ZM0 160H-2V162H0V160ZM0 2H360V-2H0V2ZM358 0V160H362V0H358ZM360 158H0V162H360V158ZM2 160V0H-2V160H2Z" fill="url(#paint2_radial_111_330)" fill-opacity="0.2" mask="url(#path-1-inside-1_111_330)"></path> <path d="M0 0V-2H-2V0H0ZM360 0H362V-2H360V0ZM360 160V162H362V160H360ZM0 160H-2V162H0V160ZM0 2H360V-2H0V2ZM358 0V160H362V0H358ZM360 158H0V162H360V158ZM2 160V0H-2V160H2Z" fill="url(#paint3_linear_111_330)" fill-opacity="0.2" mask="url(#path-1-inside-1_111_330)"></path> <defs> <radialGradient id="paint0_radial_111_330" cx="0" cy="0" r="1" gradientUnits="userSpaceOnUse" gradientTransform="translate(180 80) rotate(90) scale(80 180)"> <stop stop-color="#F0AFBB"></stop> <stop offset="1" stop-color="#FF5C79"></stop> </radialGradient> <linearGradient id="paint1_linear_111_330" x1="40.7463" y1="-42.2686" x2="191.89" y2="150.686" gradientUnits="userSpaceOnUse"> <stop stop-color="#DB80FF"></stop> <stop offset="1" stop-color="#FFEAEE" stop-opacity="0.6"></stop> </linearGradient> <radialGradient id="paint2_radial_111_330" cx="0" cy="0" r="1" gradientUnits="userSpaceOnUse" gradientTransform="translate(281.754 103.761) rotate(-126.716) scale(113.653 268.312)"> <stop stop-color="#FFEAEE"></stop> <stop offset="1" stop-color="#CC1838"></stop> </radialGradient> <linearGradient id="paint3_linear_111_330" x1="303.582" y1="112" x2="18.0039" y2="70.7461" gradientUnits="userSpaceOnUse"> <stop stop-color="#D5425C" stop-opacity="0.8"></stop> <stop offset="1" stop-color="#FFEAEE" stop-opacity="0.52"></stop> </linearGradient> </defs> </svg> 