<?xml version="1.0" encoding="UTF-8"?> <svg xmlns="http://www.w3.org/2000/svg" width="250" height="160" viewBox="0 0 250 160" fill="none"> <path d="M250 160V162H252V160H250ZM0 160H-2V162H0V160ZM248 0V160H252V0H248ZM250 158H0V162H250V158ZM2 160V0H-2V160H2Z" fill="url(#paint0_radial_111_359)" mask="url(#path-1-inside-1_111_359)"></path> <path d="M250 160V162H252V160H250ZM0 160H-2V162H0V160ZM248 0V160H252V0H248ZM250 158H0V162H250V158ZM2 160V0H-2V160H2Z" fill="url(#paint1_linear_111_359)" fill-opacity="0.2" mask="url(#path-1-inside-1_111_359)"></path> <path d="M250 160V162H252V160H250ZM0 160H-2V162H0V160ZM248 0V160H252V0H248ZM250 158H0V162H250V158ZM2 160V0H-2V160H2Z" fill="url(#paint2_radial_111_359)" fill-opacity="0.2" mask="url(#path-1-inside-1_111_359)"></path> <path d="M250 160V162H252V160H250ZM0 160H-2V162H0V160ZM248 0V160H252V0H248ZM250 158H0V162H250V158ZM2 160V0H-2V160H2Z" fill="url(#paint3_linear_111_359)" fill-opacity="0.2" mask="url(#path-1-inside-1_111_359)"></path> <defs> <radialGradient id="paint0_radial_111_359" cx="0" cy="0" r="1" gradientUnits="userSpaceOnUse" gradientTransform="translate(125 80) rotate(90) scale(80 125)"> <stop stop-color="#F0AFBB"></stop> <stop offset="1" stop-color="#FF5C79"></stop> </radialGradient> <linearGradient id="paint1_linear_111_359" x1="28.296" y1="-42.2686" x2="182.848" y2="94.749" gradientUnits="userSpaceOnUse"> <stop stop-color="#DB80FF"></stop> <stop offset="1" stop-color="#FFEAEE" stop-opacity="0.6"></stop> </linearGradient> <radialGradient id="paint2_radial_111_359" cx="0" cy="0" r="1" gradientUnits="userSpaceOnUse" gradientTransform="translate(195.662 103.761) rotate(-117.381) scale(102.599 206.402)"> <stop stop-color="#FFEAEE"></stop> <stop offset="1" stop-color="#CC1838"></stop> </radialGradient> <linearGradient id="paint3_linear_111_359" x1="210.821" y1="112" x2="10.3814" y2="91.8924" gradientUnits="userSpaceOnUse"> <stop stop-color="#D5425C" stop-opacity="0.8"></stop> <stop offset="1" stop-color="#FFEAEE" stop-opacity="0.52"></stop> </linearGradient> </defs> </svg> 