<?xml version="1.0" encoding="UTF-8"?> <svg xmlns="http://www.w3.org/2000/svg" width="60" height="60" viewBox="0 0 60 60" fill="none"> <path d="M46.1749 42.075L47.1499 49.975C47.4 52.05 45.175 53.5 43.3999 52.425L32.925 46.2C31.7749 46.2 30.6499 46.125 29.55 45.975C31.4449 43.7782 32.4913 40.9761 32.5 38.0749C32.5 30.975 26.35 25.225 18.75 25.225C15.85 25.225 13.175 26.05 10.95 27.4999C10.875 26.875 10.85 26.25 10.85 25.6C10.85 14.225 20.725 5 32.925 5C45.1249 5 55 14.225 55 25.6C55 32.35 51.525 38.325 46.1749 42.075Z" stroke="white" stroke-width="1.5" stroke-linecap="round" stroke-linejoin="round"></path> <path d="M32.4999 38.0749C32.4999 41.05 31.3999 43.8 29.55 45.975C27.075 48.975 23.1499 50.8999 18.75 50.8999L12.225 54.775C11.125 55.45 9.72496 54.525 9.87496 53.25L10.5 48.325C7.14997 46 4.99996 42.2749 4.99996 38.0749C4.99996 33.675 7.34997 29.8 10.95 27.4999C13.175 26.05 15.8499 25.225 18.75 25.225C26.3499 25.225 32.4999 30.975 32.4999 38.0749Z" stroke="white" stroke-width="1.5" stroke-linecap="round" stroke-linejoin="round"></path> </svg> 