<?xml version="1.0" encoding="UTF-8"?> <svg xmlns="http://www.w3.org/2000/svg" width="60" height="60" viewBox="0 0 60 60" fill="none"> <path d="M12.5 25.122C9.75 25.122 7.5 27.3171 7.5 30C7.5 32.6829 9.75 34.878 12.5 34.878C15.2501 34.878 17.5001 32.6829 17.5001 30C17.5001 27.3171 15.2501 25.122 12.5 25.122ZM47.5001 25.122C44.75 25.122 42.4999 27.3171 42.4999 30C42.4999 32.6829 44.75 34.878 47.5001 34.878C50.25 34.878 52.5 32.6829 52.5 30C52.5 27.3171 50.25 25.122 47.5001 25.122ZM30 25.122C27.2501 25.122 25.0001 27.3171 25.0001 30C25.0001 32.6829 27.2501 34.878 30 34.878C32.7499 34.878 34.9999 32.6829 34.9999 30C34.9999 27.3171 32.7499 25.122 30 25.122Z" stroke="white" stroke-width="1.5"></path> </svg> 