<?xml version="1.0" encoding="UTF-8"?> <svg xmlns="http://www.w3.org/2000/svg" width="360" height="180" viewBox="0 0 360 180" fill="none"> <path d="M358.5 40.296C353.702 40.9215 349.879 44.7859 349.879 49.6341C349.879 54.4824 353.702 58.3468 358.5 58.9723V66.8348C345.616 67.5602 335.249 77.5666 335.249 90C335.249 102.433 345.616 112.44 358.5 113.165V121.272C353.702 121.897 349.879 125.762 349.879 130.61C349.879 135.458 353.702 139.322 358.5 139.948V150.052C353.702 150.678 349.879 154.542 349.879 159.39C349.879 164.239 353.702 168.103 358.5 168.728V178.5L1.5 178.5L1.5 168.728C6.29805 168.103 10.1212 164.239 10.1212 159.39C10.1212 154.542 6.29806 150.678 1.5 150.052L1.5 139.948C6.29806 139.322 10.1212 135.458 10.1212 130.61C10.1212 125.762 6.29806 121.897 1.5 121.272L1.5 113.165C14.385 112.44 24.7511 102.433 24.7511 90C24.7511 77.5667 14.385 67.5601 1.5 66.8348L1.5 58.9723C6.29806 58.3468 10.1212 54.4824 10.1212 49.6341C10.1212 44.7859 6.29806 40.9215 1.5 40.296L1.5 30.1918C6.29806 29.5663 10.1212 25.7019 10.1212 20.8537C10.1212 16.0054 6.29806 12.141 1.5 11.5155L1.5 1.5L358.5 1.5V11.5155C353.702 12.141 349.879 16.0054 349.879 20.8537C349.879 25.7019 353.702 29.5663 358.5 30.1918V40.296Z" stroke="url(#paint0_radial_133_56)" stroke-width="3"></path> <path d="M358.5 40.296C353.702 40.9215 349.879 44.7859 349.879 49.6341C349.879 54.4824 353.702 58.3468 358.5 58.9723V66.8348C345.616 67.5602 335.249 77.5666 335.249 90C335.249 102.433 345.616 112.44 358.5 113.165V121.272C353.702 121.897 349.879 125.762 349.879 130.61C349.879 135.458 353.702 139.322 358.5 139.948V150.052C353.702 150.678 349.879 154.542 349.879 159.39C349.879 164.239 353.702 168.103 358.5 168.728V178.5L1.5 178.5L1.5 168.728C6.29805 168.103 10.1212 164.239 10.1212 159.39C10.1212 154.542 6.29806 150.678 1.5 150.052L1.5 139.948C6.29806 139.322 10.1212 135.458 10.1212 130.61C10.1212 125.762 6.29806 121.897 1.5 121.272L1.5 113.165C14.385 112.44 24.7511 102.433 24.7511 90C24.7511 77.5667 14.385 67.5601 1.5 66.8348L1.5 58.9723C6.29806 58.3468 10.1212 54.4824 10.1212 49.6341C10.1212 44.7859 6.29806 40.9215 1.5 40.296L1.5 30.1918C6.29806 29.5663 10.1212 25.7019 10.1212 20.8537C10.1212 16.0054 6.29806 12.141 1.5 11.5155L1.5 1.5L358.5 1.5V11.5155C353.702 12.141 349.879 16.0054 349.879 20.8537C349.879 25.7019 353.702 29.5663 358.5 30.1918V40.296Z" stroke="url(#paint1_linear_133_56)" stroke-opacity="0.2" stroke-width="3"></path> <path d="M358.5 40.296C353.702 40.9215 349.879 44.7859 349.879 49.6341C349.879 54.4824 353.702 58.3468 358.5 58.9723V66.8348C345.616 67.5602 335.249 77.5666 335.249 90C335.249 102.433 345.616 112.44 358.5 113.165V121.272C353.702 121.897 349.879 125.762 349.879 130.61C349.879 135.458 353.702 139.322 358.5 139.948V150.052C353.702 150.678 349.879 154.542 349.879 159.39C349.879 164.239 353.702 168.103 358.5 168.728V178.5L1.5 178.5L1.5 168.728C6.29805 168.103 10.1212 164.239 10.1212 159.39C10.1212 154.542 6.29806 150.678 1.5 150.052L1.5 139.948C6.29806 139.322 10.1212 135.458 10.1212 130.61C10.1212 125.762 6.29806 121.897 1.5 121.272L1.5 113.165C14.385 112.44 24.7511 102.433 24.7511 90C24.7511 77.5667 14.385 67.5601 1.5 66.8348L1.5 58.9723C6.29806 58.3468 10.1212 54.4824 10.1212 49.6341C10.1212 44.7859 6.29806 40.9215 1.5 40.296L1.5 30.1918C6.29806 29.5663 10.1212 25.7019 10.1212 20.8537C10.1212 16.0054 6.29806 12.141 1.5 11.5155L1.5 1.5L358.5 1.5V11.5155C353.702 12.141 349.879 16.0054 349.879 20.8537C349.879 25.7019 353.702 29.5663 358.5 30.1918V40.296Z" stroke="url(#paint2_radial_133_56)" stroke-opacity="0.2" stroke-width="3"></path> <path d="M358.5 40.296C353.702 40.9215 349.879 44.7859 349.879 49.6341C349.879 54.4824 353.702 58.3468 358.5 58.9723V66.8348C345.616 67.5602 335.249 77.5666 335.249 90C335.249 102.433 345.616 112.44 358.5 113.165V121.272C353.702 121.897 349.879 125.762 349.879 130.61C349.879 135.458 353.702 139.322 358.5 139.948V150.052C353.702 150.678 349.879 154.542 349.879 159.39C349.879 164.239 353.702 168.103 358.5 168.728V178.5L1.5 178.5L1.5 168.728C6.29805 168.103 10.1212 164.239 10.1212 159.39C10.1212 154.542 6.29806 150.678 1.5 150.052L1.5 139.948C6.29806 139.322 10.1212 135.458 10.1212 130.61C10.1212 125.762 6.29806 121.897 1.5 121.272L1.5 113.165C14.385 112.44 24.7511 102.433 24.7511 90C24.7511 77.5667 14.385 67.5601 1.5 66.8348L1.5 58.9723C6.29806 58.3468 10.1212 54.4824 10.1212 49.6341C10.1212 44.7859 6.29806 40.9215 1.5 40.296L1.5 30.1918C6.29806 29.5663 10.1212 25.7019 10.1212 20.8537C10.1212 16.0054 6.29806 12.141 1.5 11.5155L1.5 1.5L358.5 1.5V11.5155C353.702 12.141 349.879 16.0054 349.879 20.8537C349.879 25.7019 353.702 29.5663 358.5 30.1918V40.296Z" stroke="url(#paint3_linear_133_56)" stroke-opacity="0.2" stroke-width="3"></path> <defs> <radialGradient id="paint0_radial_133_56" cx="0" cy="0" r="1" gradientUnits="userSpaceOnUse" gradientTransform="translate(180 90) scale(180 90)"> <stop stop-color="#F0AFBB"></stop> <stop offset="1" stop-color="#FF5C79"></stop> </radialGradient> <linearGradient id="paint1_linear_133_56" x1="-95.1045" y1="159.627" x2="-42.9232" y2="-24.3073" gradientUnits="userSpaceOnUse"> <stop stop-color="#DB80FF"></stop> <stop offset="1" stop-color="#FFEAEE" stop-opacity="0.6"></stop> </linearGradient> <radialGradient id="paint2_radial_133_56" cx="0" cy="0" r="1" gradientUnits="userSpaceOnUse" gradientTransform="translate(233.463 39.1231) rotate(170.589) scale(207.781 165.107)"> <stop stop-color="#FFEAEE"></stop> <stop offset="1" stop-color="#CC1838"></stop> </radialGradient> <linearGradient id="paint3_linear_133_56" x1="252" y1="28.209" x2="247.325" y2="173.828" gradientUnits="userSpaceOnUse"> <stop stop-color="#D5425C" stop-opacity="0.8"></stop> <stop offset="1" stop-color="#FFEAEE" stop-opacity="0.52"></stop> </linearGradient> </defs> </svg> 