<?xml version="1.0" encoding="UTF-8"?> <svg xmlns="http://www.w3.org/2000/svg" width="320" height="478" viewBox="0 0 320 478" fill="none"> <path d="M247.137 476.5C246.32 469.834 239.405 465.053 231.633 465.053C223.862 465.053 216.946 469.834 216.129 476.5H199.939C198.966 459.053 181.109 445.628 159.911 445.628C138.714 445.628 120.856 459.053 119.884 476.5H103.26C102.443 469.834 95.5278 465.053 87.7562 465.053C79.9847 465.053 73.0696 469.834 72.2525 476.5H52.123C51.3059 469.834 44.3908 465.053 36.6193 465.053C28.8476 465.053 21.9326 469.834 21.1155 476.5H1.5V1.5H21.1155C21.9326 8.166 28.8476 12.947 36.6193 12.947C44.3908 12.947 51.3059 8.16601 52.123 1.5H72.2525C73.0696 8.16601 79.9847 12.947 87.7562 12.947C95.5278 12.947 102.443 8.16601 103.26 1.5H119.884C120.856 18.9484 138.714 32.3723 159.911 32.3723C181.109 32.3723 198.967 18.9484 199.939 1.5H216.129C216.947 8.16601 223.862 12.947 231.633 12.947C239.405 12.947 246.32 8.16601 247.137 1.5H267.266C268.083 8.16601 274.999 12.947 282.77 12.947C290.542 12.947 297.457 8.16601 298.274 1.5H318.323V476.5H298.274C297.457 469.834 290.542 465.053 282.77 465.053C274.999 465.053 268.083 469.834 267.266 476.5H247.137Z" stroke="url(#paint0_radial_81_398)" stroke-width="3"></path> <path d="M247.137 476.5C246.32 469.834 239.405 465.053 231.633 465.053C223.862 465.053 216.946 469.834 216.129 476.5H199.939C198.966 459.053 181.109 445.628 159.911 445.628C138.714 445.628 120.856 459.053 119.884 476.5H103.26C102.443 469.834 95.5278 465.053 87.7562 465.053C79.9847 465.053 73.0696 469.834 72.2525 476.5H52.123C51.3059 469.834 44.3908 465.053 36.6193 465.053C28.8476 465.053 21.9326 469.834 21.1155 476.5H1.5V1.5H21.1155C21.9326 8.166 28.8476 12.947 36.6193 12.947C44.3908 12.947 51.3059 8.16601 52.123 1.5H72.2525C73.0696 8.16601 79.9847 12.947 87.7562 12.947C95.5278 12.947 102.443 8.16601 103.26 1.5H119.884C120.856 18.9484 138.714 32.3723 159.911 32.3723C181.109 32.3723 198.967 18.9484 199.939 1.5H216.129C216.947 8.16601 223.862 12.947 231.633 12.947C239.405 12.947 246.32 8.16601 247.137 1.5H267.266C268.083 8.16601 274.999 12.947 282.77 12.947C290.542 12.947 297.457 8.16601 298.274 1.5H318.323V476.5H298.274C297.457 469.834 290.542 465.053 282.77 465.053C274.999 465.053 268.083 469.834 267.266 476.5H247.137Z" stroke="url(#paint1_linear_81_398)" stroke-opacity="0.2" stroke-width="3"></path> <path d="M247.137 476.5C246.32 469.834 239.405 465.053 231.633 465.053C223.862 465.053 216.946 469.834 216.129 476.5H199.939C198.966 459.053 181.109 445.628 159.911 445.628C138.714 445.628 120.856 459.053 119.884 476.5H103.26C102.443 469.834 95.5278 465.053 87.7562 465.053C79.9847 465.053 73.0696 469.834 72.2525 476.5H52.123C51.3059 469.834 44.3908 465.053 36.6193 465.053C28.8476 465.053 21.9326 469.834 21.1155 476.5H1.5V1.5H21.1155C21.9326 8.166 28.8476 12.947 36.6193 12.947C44.3908 12.947 51.3059 8.16601 52.123 1.5H72.2525C73.0696 8.16601 79.9847 12.947 87.7562 12.947C95.5278 12.947 102.443 8.16601 103.26 1.5H119.884C120.856 18.9484 138.714 32.3723 159.911 32.3723C181.109 32.3723 198.967 18.9484 199.939 1.5H216.129C216.947 8.16601 223.862 12.947 231.633 12.947C239.405 12.947 246.32 8.16601 247.137 1.5H267.266C268.083 8.16601 274.999 12.947 282.77 12.947C290.542 12.947 297.457 8.16601 298.274 1.5H318.323V476.5H298.274C297.457 469.834 290.542 465.053 282.77 465.053C274.999 465.053 268.083 469.834 267.266 476.5H247.137Z" stroke="url(#paint2_radial_81_398)" stroke-opacity="0.2" stroke-width="3"></path> <path d="M247.137 476.5C246.32 469.834 239.405 465.053 231.633 465.053C223.862 465.053 216.946 469.834 216.129 476.5H199.939C198.966 459.053 181.109 445.628 159.911 445.628C138.714 445.628 120.856 459.053 119.884 476.5H103.26C102.443 469.834 95.5278 465.053 87.7562 465.053C79.9847 465.053 73.0696 469.834 72.2525 476.5H52.123C51.3059 469.834 44.3908 465.053 36.6193 465.053C28.8476 465.053 21.9326 469.834 21.1155 476.5H1.5V1.5H21.1155C21.9326 8.166 28.8476 12.947 36.6193 12.947C44.3908 12.947 51.3059 8.16601 52.123 1.5H72.2525C73.0696 8.16601 79.9847 12.947 87.7562 12.947C95.5278 12.947 102.443 8.16601 103.26 1.5H119.884C120.856 18.9484 138.714 32.3723 159.911 32.3723C181.109 32.3723 198.967 18.9484 199.939 1.5H216.129C216.947 8.16601 223.862 12.947 231.633 12.947C239.405 12.947 246.32 8.16601 247.137 1.5H267.266C268.083 8.16601 274.999 12.947 282.77 12.947C290.542 12.947 297.457 8.16601 298.274 1.5H318.323V476.5H298.274C297.457 469.834 290.542 465.053 282.77 465.053C274.999 465.053 268.083 469.834 267.266 476.5H247.137Z" stroke="url(#paint3_linear_81_398)" stroke-opacity="0.2" stroke-width="3"></path> <defs> <radialGradient id="paint0_radial_81_398" cx="0" cy="0" r="1" gradientUnits="userSpaceOnUse" gradientTransform="translate(159.911 239) rotate(90) scale(239 159.911)"> <stop stop-color="#F0AFBB"></stop> <stop offset="1" stop-color="#FF5C79"></stop> </radialGradient> <linearGradient id="paint1_linear_81_398" x1="36.1988" y1="-126.278" x2="344.834" y2="-9.1097" gradientUnits="userSpaceOnUse"> <stop stop-color="#DB80FF"></stop> <stop offset="1" stop-color="#FFEAEE" stop-opacity="0.6"></stop> </linearGradient> <radialGradient id="paint2_radial_81_398" cx="0" cy="0" r="1" gradientUnits="userSpaceOnUse" gradientTransform="translate(250.309 309.987) rotate(-102.505) scale(278.788 290.308)"> <stop stop-color="#FFEAEE"></stop> <stop offset="1" stop-color="#CC1838"></stop> </radialGradient> <linearGradient id="paint3_linear_81_398" x1="269.701" y1="334.6" x2="11.1774" y2="323.495" gradientUnits="userSpaceOnUse"> <stop stop-color="#D5425C" stop-opacity="0.8"></stop> <stop offset="1" stop-color="#FFEAEE" stop-opacity="0.52"></stop> </linearGradient> </defs> </svg> 