<?xml version="1.0" encoding="UTF-8"?> <svg xmlns="http://www.w3.org/2000/svg" width="60" height="60" viewBox="0 0 60 60" fill="none"> <path d="M26.88 41.8536V46.8048C26.88 51 22.8799 54.3903 17.955 54.3903C13.0299 54.3903 9.00494 51 9.00494 46.8048V41.8536C9.00494 46.0488 13.0049 49.0244 17.955 49.0244C22.8799 49.0244 26.88 46.0244 26.88 41.8536Z" stroke="white" stroke-width="1.5" stroke-linecap="round" stroke-linejoin="round"></path> <path d="M26.8749 35.1464C26.8749 36.3659 26.5249 37.4879 25.9249 38.4634C24.4498 40.8293 21.4249 42.3171 17.9248 42.3171C14.4249 42.3171 11.3999 40.8049 9.92491 38.4634C9.32491 37.4879 8.97491 36.3659 8.97491 35.1464C8.97491 33.0488 9.9749 31.1708 11.5749 29.8049C13.1999 28.4147 15.4249 27.5854 17.8999 27.5854C20.3749 27.5854 22.5999 28.439 24.2248 29.8049C25.8748 31.1463 26.8749 33.0488 26.8749 35.1464Z" stroke="white" stroke-width="1.5" stroke-linecap="round" stroke-linejoin="round"></path> <path d="M26.88 35.1464V41.8536C26.88 46.0488 22.8799 49.0244 17.955 49.0244C13.0299 49.0244 9.00494 46.0244 9.00494 41.8536V35.1464C9.00494 30.9512 13.0049 27.5609 17.955 27.5609C20.43 27.5609 22.6549 28.4147 24.2799 29.7805C25.8799 31.1463 26.88 33.0487 26.88 35.1464ZM54.9999 27.4877V32.5122C54.9999 33.8536 53.8999 34.9512 52.5 35H47.5999C44.8999 35 42.4249 33.0732 42.1999 30.439C42.0499 28.9024 42.6499 27.4635 43.6999 26.4634C44.625 25.5366 45.9 24.9999 47.2999 24.9999H52.5C53.8999 25.0488 54.9999 26.1464 54.9999 27.4877Z" stroke="white" stroke-width="1.5" stroke-linecap="round" stroke-linejoin="round"></path> <path d="M5.00006 26.3415V21.4635C5.00006 14.8292 9.10007 10.1951 15.4751 9.41465C16.125 9.31709 16.8 9.26831 17.5001 9.26831H40.0001C40.65 9.26831 41.2751 9.29269 41.8751 9.39026C48.3251 10.122 52.5 14.7805 52.5 21.4635V25H47.3001C45.9 25 44.625 25.5366 43.7001 26.4634C42.6501 27.4635 42.0501 28.9025 42.2001 30.439C42.4251 33.0732 44.9001 35.0001 47.6001 35.0001H52.5V38.5366C52.5 45.8536 47.5001 50.7318 40.0001 50.7318H33.75" stroke="white" stroke-width="1.5" stroke-linecap="round" stroke-linejoin="round"></path> </svg> 